<svg version="1.0"
    xmlns="http://www.w3.org/2000/svg" width="512.000000pt" height="512.000000pt" viewBox="0 0 512.000000 512.000000" preserveAspectRatio="xMidYMid meet">

    <g transform="translate(0.000000,512.000000) scale(0.100000,-0.100000)" fill="#FFFFFF" stroke="none">
        <path d="M1195 4900 c-221 -33 -406 -170 -495 -365 -57 -124 -60 -160 -60
-677 0 -305 4 -487 11 -512 15 -54 83 -119 142 -135 95 -27 195 13 244 97 l28
47 5 490 c5 537 3 517 67 577 63 60 31 58 867 58 l765 0 3 -563 3 -564 30 -48
c22 -36 45 -57 84 -77 l53 -28 554 0 554 0 0 -1195 c0 -1309 3 -1234 -58
-1298 -63 -67 75 -61 -1648 -67 l-1560 -5 -42 -28 c-60 -39 -93 -94 -99 -164
-7 -80 31 -154 102 -198 l48 -30 1571 0 c1494 0 1574 1 1636 18 214 61 381
220 452 432 l23 70 3 1410 c2 1242 1 1415 -13 1450 -11 31 -156 181 -642 666
-591 589 -631 627 -675 638 -54 13 -1868 14 -1953 1z m2335 -945 l325 -325
-328 0 -327 0 0 325 c0 179 1 325 3 325 1 0 148 -146 327 -325z"/>
        <path d="M1819 2747 c-64 -34 -102 -93 -107 -166 -7 -100 5 -120 176 -293
l156 -158 -832 0 c-729 0 -837 -2 -870 -15 -169 -71 -169 -319 0 -390 33 -13
141 -15 870 -15 l832 0 -152 -153 c-90 -91 -157 -167 -167 -190 -56 -134 32
-285 174 -295 108 -8 104 -11 479 362 189 187 355 360 369 384 35 59 35 145 0
204 -38 64 -694 714 -739 733 -56 23 -136 19 -189 -8z"/>
    </g>
</svg>
